<svg width="25" height="24" viewBox="0 0 25 24" fill="none" xmlns="http://www.w3.org/2000/svg">
<g clip-path="url(#clip0_64_36)">
<path d="M21.108 19.9539C22.9935 17.8349 24.142 15.0492 24.142 12C24.142 8.82745 22.8989 5.94083 20.8756 3.79283V3.79241C20.8739 3.78993 20.8714 3.7891 20.8702 3.78703C18.7627 1.55297 15.8099 0.122897 12.5256 0.0107586L12.5252 0.0103448L12.2908 0.00413793C12.2302 0.00206897 12.1696 0 12.1086 0C12.0476 0 11.987 0.00206897 11.9265 0.00413793L11.6928 0.0103448L11.6924 0.0107586C8.40814 0.122897 5.45538 1.55297 3.34787 3.78703C3.34621 3.7891 3.34372 3.78993 3.34248 3.79241C3.34248 3.79241 3.34248 3.79283 3.34206 3.79324C1.31837 5.94083 0.0751953 8.82745 0.0751953 12C0.0751953 15.0492 1.22376 17.8349 3.10928 19.9539C3.11177 19.9577 3.11177 19.9618 3.11467 19.9655C3.12214 19.9759 3.13293 19.9808 3.14081 19.9903C5.25953 22.3523 8.29942 23.8738 11.692 23.9897L11.6924 23.9901L11.926 23.9963C11.987 23.9979 12.0476 24 12.1086 24C12.1696 24 12.2302 23.9979 12.2908 23.9959L12.5244 23.9897L12.5248 23.9892C15.9211 23.873 18.9644 22.3486 21.0831 19.9817C21.0885 19.9746 21.0972 19.9726 21.1022 19.9651C21.1055 19.9618 21.1055 19.9577 21.108 19.9539ZM0.91546 12.4138H5.89605C5.94294 14.1679 6.28652 15.8723 6.89815 17.4691C5.71804 17.8949 4.5898 18.4659 3.53252 19.1785C1.97772 17.3342 1.01007 14.9834 0.91546 12.4138ZM3.75908 4.56124C4.79147 5.23076 5.89066 5.76703 7.03715 6.16759C6.33507 7.86703 5.94668 9.69931 5.89605 11.5862H0.91546C1.01463 8.89366 2.07191 6.44193 3.75908 4.56124ZM23.3018 11.5862H18.3212C18.2706 9.69931 17.8822 7.86703 17.1801 6.16759C18.3266 5.76703 19.4258 5.23076 20.4582 4.56124C22.1453 6.44193 23.2026 8.89366 23.3018 11.5862ZM11.6937 6.19159C10.4941 6.15766 9.31645 5.97931 8.17867 5.66069C9.01976 3.94014 10.2073 2.38717 11.6937 1.09407V6.19159ZM11.6937 7.01917V11.5862H6.72595C6.77698 9.78703 7.15541 8.04207 7.83219 6.42414C9.07952 6.78455 10.3746 6.984 11.6937 7.01917ZM12.5236 7.01917C13.8427 6.984 15.1377 6.78497 16.3855 6.42414C17.0622 8.04207 17.4407 9.78703 17.4917 11.5862H12.5236V7.01917ZM12.5236 6.19159V1.09407C14.0099 2.38717 15.1975 3.94014 16.0386 5.66069C14.9008 5.97931 13.7232 6.15766 12.5236 6.19159ZM16.8427 5.4091C16.0456 3.74359 14.9394 2.22621 13.5696 0.925655C15.9996 1.24262 18.1859 2.33835 19.8698 3.95379C18.9137 4.55876 17.8996 5.04538 16.8427 5.4091ZM7.37451 5.4091C6.31764 5.04538 5.30351 4.55876 4.34789 3.95379C6.03133 2.33835 8.21809 1.24262 10.648 0.925655C9.27786 2.22621 8.17162 3.74359 7.37451 5.4091ZM6.72595 12.4138H11.6937V16.5674C10.3215 16.6039 8.97703 16.8174 7.68489 17.2051C7.10106 15.6927 6.77283 14.0768 6.72595 12.4138ZM11.6937 17.395V22.9059C10.1028 21.5218 8.85545 19.8401 8.0073 17.9748C9.19695 17.6251 10.4327 17.4306 11.6937 17.395ZM12.5236 22.9059V17.395C13.7846 17.4302 15.0203 17.6251 16.2099 17.9743C15.3618 19.8401 14.1145 21.5218 12.5236 22.9059ZM12.5236 16.5674V12.4138H17.4913C17.4444 14.0768 17.1162 15.6927 16.5319 17.2055C15.2402 16.8174 13.8958 16.6039 12.5236 16.5674ZM18.3212 12.4138H23.3018C23.2072 14.9834 22.2399 17.3342 20.6847 19.1785C19.6274 18.4659 18.4992 17.8949 17.3191 17.4691C17.9311 15.8723 18.2743 14.1679 18.3212 12.4138ZM4.09643 19.7983C5.0782 19.1479 6.12344 18.6248 7.21558 18.2338C8.02265 20.0379 9.18118 21.6819 10.6476 23.0743C8.09527 22.7412 5.81099 21.5495 4.09643 19.7983ZM13.5696 23.0743C15.0361 21.6823 16.1946 20.0383 17.0017 18.2338C18.0938 18.6248 19.1386 19.1479 20.1208 19.7983C18.4063 21.5495 16.122 22.7412 13.5696 23.0743Z" fill="black"/>
</g>
<defs>
<clipPath id="clip0_64_36">
<rect width="24.0669" height="24" fill="white" transform="translate(0.0751953)"/>
</clipPath>
</defs>
</svg>
