<svg width="73" height="73" viewBox="0 0 73 73" fill="none" xmlns="http://www.w3.org/2000/svg">
<path d="M28.1901 21.6932H33.3609C33.6836 21.6932 33.993 21.565 34.2212 21.3368C34.4494 21.1086 34.5776 20.7992 34.5776 20.4765C34.5776 20.1538 34.4494 19.8443 34.2212 19.6162C33.993 19.388 33.6836 19.2598 33.3609 19.2598H28.1901C27.8674 19.2598 27.5579 19.388 27.3297 19.6162C27.1016 19.8443 26.9734 20.1538 26.9734 20.4765C26.9734 20.7992 27.1016 21.1086 27.3297 21.3368C27.5579 21.565 27.8674 21.6932 28.1901 21.6932Z" fill="#0CAADB"/>
<path d="M46.7443 50.2849H43.2889C42.9663 50.2849 42.6568 50.413 42.4286 50.6412C42.2004 50.8694 42.0723 51.1788 42.0723 51.5015C42.0723 51.8242 42.2004 52.1337 42.4286 52.3618C42.6568 52.59 42.9663 52.7182 43.2889 52.7182H46.7443C47.0669 52.7182 47.3764 52.59 47.6046 52.3618C47.8327 52.1337 47.9609 51.8242 47.9609 51.5015C47.9609 51.1788 47.8327 50.8694 47.6046 50.6412C47.3764 50.413 47.0669 50.2849 46.7443 50.2849Z" fill="#0CAADB"/>
<path d="M37.7774 50.2849H28.1901C27.8674 50.2849 27.5579 50.413 27.3297 50.6412C27.1016 50.8694 26.9734 51.1788 26.9734 51.5015C26.9734 51.8242 27.1016 52.1337 27.3297 52.3618C27.5579 52.59 27.8674 52.7182 28.1901 52.7182H37.7774C38.1001 52.7182 38.4095 52.59 38.6377 52.3618C38.8659 52.1337 38.9941 51.8242 38.9941 51.5015C38.9941 51.1788 38.8659 50.8694 38.6377 50.6412C38.4095 50.413 38.1001 50.2849 37.7774 50.2849Z" fill="#0CAADB"/>
<path d="M61.831 50.9054L58.8015 47.888V15.2205C58.8015 14.615 58.6822 14.0154 58.4505 13.4559C58.2188 12.8965 57.8791 12.3881 57.4509 11.9599C57.0227 11.5317 56.5144 11.1921 55.9549 10.9604C55.3955 10.7286 54.7959 10.6094 54.1903 10.6094H24.5402V7.70152C24.5402 7.37884 24.412 7.06938 24.1838 6.84121C23.9556 6.61304 23.6462 6.48485 23.3235 6.48485H18.9313C17.7141 6.45848 16.5354 6.91203 15.6498 7.74751C14.7643 8.583 14.2429 9.73335 14.1985 10.95V57.7917C14.1985 59.0146 14.6843 60.1875 15.5491 61.0523C16.4138 61.917 17.5867 62.4029 18.8097 62.4029H54.1903C55.4133 62.4029 56.5861 61.917 57.4509 61.0523C58.3157 60.1875 58.8015 59.0146 58.8015 57.7917V57.0495C59.5538 57.1402 60.3158 56.9944 60.9815 56.6325C61.6473 56.2706 62.1839 55.7104 62.5169 55.0297C62.8499 54.349 62.9628 53.5815 62.8399 52.8337C62.717 52.086 62.3644 51.395 61.831 50.8567V50.9054ZM16.6318 10.95C16.6633 10.3701 16.9226 9.82606 17.3533 9.4364C17.784 9.04674 18.3511 8.843 18.9313 8.86952H22.1068V53.2779H18.9313C18.1294 53.2761 17.3395 53.4725 16.6318 53.8497V10.95ZM54.1903 60.0182H18.8097C18.53 60.0102 18.2548 59.9472 17.9995 59.8328C17.7442 59.7185 17.514 59.5549 17.3219 59.3516C17.1299 59.1482 16.9797 58.909 16.8801 58.6476C16.7805 58.3862 16.7333 58.1078 16.7413 57.8282C16.7493 57.5486 16.8123 57.2733 16.9267 57.018C17.0411 56.7628 17.2046 56.5325 17.408 56.3405C17.6113 56.1484 17.8505 55.9983 18.1119 55.8986C18.3733 55.799 18.6517 55.7519 18.9313 55.7599H23.3235C23.6462 55.7599 23.9556 55.6317 24.1838 55.4035C24.412 55.1753 24.5402 54.8659 24.5402 54.5432V13.0427H54.1903C54.4763 13.0427 54.7595 13.099 55.0237 13.2085C55.288 13.3179 55.528 13.4783 55.7303 13.6806C55.9325 13.8828 56.0929 14.1229 56.2024 14.3871C56.3118 14.6513 56.3682 14.9345 56.3682 15.2205V45.4547L54.9446 44.0312C54.8315 43.9171 54.697 43.8266 54.5487 43.7649C54.4005 43.7031 54.2414 43.6713 54.0808 43.6713C53.9202 43.6713 53.7612 43.7031 53.6129 43.7649C53.4647 43.8266 53.3301 43.9171 53.217 44.0312L52.3653 44.8829L50.4308 42.9484C51.6268 41.5751 52.53 39.9723 53.0851 38.2379C53.6402 36.5036 53.8355 34.6742 53.659 32.8617C53.4826 31.0492 52.9381 29.2918 52.0589 27.6971C51.1798 26.1024 49.9844 24.7038 48.546 23.5871C47.1075 22.4703 45.4564 21.6589 43.6935 21.2024C41.9306 20.7459 40.0931 20.654 38.2934 20.9323C36.4938 21.2106 34.7699 21.8532 33.2272 22.8209C31.6845 23.7885 30.3556 25.0608 29.3217 26.5599H28.1902C27.8675 26.5599 27.558 26.688 27.3298 26.9162C27.1017 27.1444 26.9735 27.4538 26.9735 27.7765C26.9672 28.0595 27.0597 28.3357 27.2352 28.5578C27.4106 28.7799 27.6579 28.9338 27.9347 28.9932C26.9068 31.2814 26.5464 33.8135 26.8952 36.2976C27.2439 38.7817 28.2875 41.1168 29.9057 43.0335H28.1902C27.8675 43.0335 27.558 43.1617 27.3298 43.3899C27.1017 43.618 26.9735 43.9275 26.9735 44.2502C26.9735 44.5729 27.1017 44.8823 27.3298 45.1105C27.558 45.3387 27.8675 45.4669 28.1902 45.4669H32.5823C34.9859 47.0986 37.8551 47.904 40.7567 47.7613C43.6584 47.6186 46.4348 46.5357 48.6666 44.676L50.6012 46.6105L49.7495 47.4744C49.5229 47.7023 49.3957 48.0107 49.3957 48.3321C49.3957 48.6535 49.5229 48.9619 49.7495 49.1899L56.3316 55.7842V57.8404C56.3317 58.4117 56.1073 58.9602 55.7067 59.3676C55.3062 59.7749 54.7616 60.0086 54.1903 60.0182ZM29.2 34.3952C29.2 32.2295 29.8422 30.1124 31.0454 28.3117C32.2486 26.511 33.9587 25.1075 35.9596 24.2787C37.9605 23.4499 40.1621 23.2331 42.2862 23.6556C44.4103 24.0781 46.3614 25.121 47.8928 26.6524C49.4242 28.1838 50.4671 30.1349 50.8896 32.2589C51.3121 34.383 51.0952 36.5847 50.2665 38.5856C49.4377 40.5864 48.0342 42.2966 46.2335 43.4998C44.4328 44.703 42.3157 45.3452 40.15 45.3452C37.2459 45.3452 34.4607 44.1915 32.4072 42.138C30.3536 40.0845 29.2 37.2993 29.2 34.3952ZM60.1033 54.3485C59.8754 54.5751 59.567 54.7023 59.2456 54.7023C58.9241 54.7023 58.6158 54.5751 58.3878 54.3485L52.3045 48.2652L54.02 46.5497L60.0425 52.5722C60.168 52.6818 60.2697 52.816 60.3413 52.9665C60.4128 53.117 60.4527 53.2806 60.4584 53.4472C60.4641 53.6137 60.4355 53.7796 60.3744 53.9347C60.3133 54.0898 60.2211 54.2306 60.1033 54.3485Z" fill="#0CAADB"/>
<path d="M43.8001 39.639C43.8001 39.3163 43.6719 39.0069 43.4437 38.7787C43.2156 38.5505 42.9061 38.4224 42.5834 38.4224H41.3668V31.2075H43.3986V31.6334C43.3986 31.956 43.5268 32.2655 43.755 32.4937C43.9831 32.7218 44.2926 32.85 44.6153 32.85C44.9379 32.85 45.2474 32.7218 45.4756 32.4937C45.7037 32.2655 45.8319 31.956 45.8319 31.6334V30.0517C45.8319 29.729 45.7037 29.4195 45.4756 29.1914C45.2474 28.9632 44.9379 28.835 44.6153 28.835H35.6849C35.3622 28.835 35.0528 28.9632 34.8246 29.1914C34.5964 29.4195 34.4683 29.729 34.4683 30.0517V31.6334C34.4683 31.956 34.5964 32.2655 34.8246 32.4937C35.0528 32.7218 35.3622 32.85 35.6849 32.85C36.0076 32.85 36.3171 32.7218 36.5452 32.4937C36.7734 32.2655 36.9016 31.956 36.9016 31.6334V31.2684H38.9334V38.4832H37.7776C37.6178 38.4832 37.4596 38.5147 37.312 38.5758C37.1644 38.6369 37.0303 38.7266 36.9173 38.8395C36.8043 38.9525 36.7147 39.0866 36.6535 39.2343C36.5924 39.3819 36.5609 39.5401 36.5609 39.6999C36.5609 39.8596 36.5924 40.0178 36.6535 40.1655C36.7147 40.3131 36.8043 40.4472 36.9173 40.5602C37.0303 40.6731 37.1644 40.7628 37.312 40.8239C37.4596 40.8851 37.6178 40.9165 37.7776 40.9165H42.5834C42.7485 40.9167 42.9118 40.8834 43.0635 40.8184C43.2152 40.7535 43.3522 40.6584 43.466 40.5389C43.5798 40.4194 43.6681 40.278 43.7255 40.1233C43.783 39.9686 43.8083 39.8038 43.8001 39.639Z" fill="#0CAADB"/>
</svg>
