<svg width="57" height="57" viewBox="0 0 57 57" fill="none" xmlns="http://www.w3.org/2000/svg">
<g clip-path="url(#clip0_69_140)">
<path d="M56.0496 44.5676C56.0496 43.7753 55.4087 43.1345 54.6164 43.1345H5.83085L14.4065 34.5589C14.9658 33.9996 14.9658 33.1024 14.4065 32.5431C13.8472 31.9838 12.95 31.9838 12.3907 32.5431L1.37991 43.554C0.820629 44.1132 0.820629 45.0104 1.37991 45.5697L12.3907 56.5805C12.6704 56.8602 13.0316 57 13.4044 57C13.7773 57 14.1385 56.8602 14.4181 56.5805C14.9774 56.0212 14.9774 55.1241 14.4181 54.5648L5.8425 45.9892H54.6397C55.4087 45.9892 56.0496 45.36 56.0496 44.5676Z" fill="#0CAADB"/>
<path d="M55.6302 11.4186L44.6193 0.41946C44.0601 -0.13982 43.1629 -0.13982 42.6036 0.41946C42.0443 0.978741 42.0443 1.87592 42.6036 2.4352L51.1792 11.0108H2.38201C1.58969 11.0108 0.948853 11.6517 0.948853 12.444C0.948853 13.2363 1.58969 13.8771 2.38201 13.8771H51.1792L42.6036 22.4295C42.0443 22.9888 42.0443 23.8859 42.6036 24.4452C42.8832 24.7249 43.2444 24.8647 43.6173 24.8647C43.9901 24.8647 44.3513 24.7249 44.631 24.4452L55.6418 13.4344C56.1894 12.8868 56.1894 11.9779 55.6302 11.4186Z" fill="#0CAADB"/>
</g>
<defs>
<clipPath id="clip0_69_140">
<rect width="57" height="57" fill="white"/>
</clipPath>
</defs>
</svg>
