<svg width="34" height="34" viewBox="0 0 34 34" fill="none" xmlns="http://www.w3.org/2000/svg">
<path d="M17 0C7.62646 0 0 7.62581 0 17C0 26.3742 7.62646 34 17 34C26.3735 34 34 26.3742 34 17C34 7.62581 26.3735 0 17 0ZM17 32.6923C8.34765 32.6923 1.30769 25.6523 1.30769 17C1.30769 8.34765 8.34765 1.30769 17 1.30769C25.6523 1.30769 32.6923 8.34765 32.6923 17C32.6923 25.6523 25.6523 32.6923 17 32.6923Z" fill="#0CAADB"/>
<path d="M17 6.53845C16.6391 6.53845 16.3462 6.83072 16.3462 7.1923V21.5769C16.3462 21.9385 16.6391 22.2308 17 22.2308C17.361 22.2308 17.6539 21.9385 17.6539 21.5769V7.1923C17.6539 6.83072 17.361 6.53845 17 6.53845Z" fill="#0CAADB"/>
<path d="M17 24.1923C16.6391 24.1923 16.3462 24.4846 16.3462 24.8462V26.1539C16.3462 26.5154 16.6391 26.8077 17 26.8077C17.361 26.8077 17.6539 26.5154 17.6539 26.1539V24.8462C17.6539 24.4846 17.361 24.1923 17 24.1923Z" fill="#0CAADB"/>
</svg>
